<svg height="24" viewBox="0 0 24 24" width="24" xmlns="http://www.w3.org/2000/svg"><circle cx="12" cy="12" fill="#fff" r="12"/><path d="m4.432 144.953-.7 2.6-2.544.054a10.017 10.017 0 0 1 -.074-9.338l2.265.415.992 2.252a5.968 5.968 0 0 0 .056 4.018z" fill="#fbbb00" transform="translate(2 -130.867)"/><path d="m271.233 208.176a10 10 0 0 1 -3.565 9.666l-2.853-.146-.4-2.521a5.96 5.96 0 0 0 2.564-3.043h-5.347v-3.956h9.605z" fill="#518ef8" transform="translate(-249.408 -198.044)"/><path d="m45.577 315.121a10 10 0 0 1 -15.069-3.059l3.241-2.653a5.947 5.947 0 0 0 8.57 3.045z" fill="#28b446" transform="translate(-27.317 -295.323)"/><path d="m43.889 2.3-3.24 2.652a5.947 5.947 0 0 0 -8.767 3.114l-3.257-2.666a10 10 0 0 1 15.264-3.1z" fill="#f14336" transform="translate(-25.506 2)"/></svg>